<?xml version="1.0" standalone="no"?>
<!DOCTYPE svg PUBLIC "-//W3C//DTD SVG 20010904//EN"
 "http://www.w3.org/TR/2001/REC-SVG-20010904/DTD/svg10.dtd">
<svg version="1.0" xmlns="http://www.w3.org/2000/svg"
 width="300.000000pt" height="300.000000pt" viewBox="0 0 300.000000 300.000000"
 preserveAspectRatio="xMidYMid meet">
<metadata>
Created by potrace 1.10, written by Peter Selinger 2001-2011
</metadata>
<g transform="translate(0.000000,300.000000) scale(0.100000,-0.100000)"
fill="#000000" stroke="none">
<path d="M1469 2521 c-34 -34 -34 -33 -11 -172 l18 -106 -41 0 c-130 0 -232
-161 -196 -310 35 -143 165 -237 262 -189 30 15 36 15 67 0 28 -13 39 -14 63
-3 43 17 49 36 49 151 0 105 -12 211 -51 461 -20 126 -26 145 -50 170 -36 36
-72 35 -110 -2z m101 -16 c13 -15 62 -317 79 -484 16 -152 14 -221 -6 -243
-21 -23 -59 -23 -79 1 -16 19 -17 19 -48 0 -42 -26 -102 -24 -148 4 -71 43
-108 117 -108 219 0 130 77 218 191 218 l52 0 -6 38 c-24 147 -30 231 -18 246
17 20 75 21 91 1z"/>
<path d="M1403 2106 c-56 -25 -77 -93 -49 -160 18 -43 51 -66 97 -66 46 0 79
26 88 70 22 108 -52 193 -136 156z m72 -22 c24 -9 45 -58 45 -103 0 -31 -6
-44 -26 -60 -30 -24 -43 -26 -77 -10 -31 14 -47 48 -47 99 0 57 52 94 105 74z"/>
<path d="M1739 2508 c-6 -13 -24 -34 -38 -47 l-25 -24 26 -21 c14 -11 29 -31
33 -43 7 -26 27 -30 45 -8 7 8 25 15 40 15 33 0 43 19 24 44 -10 14 -11 24 -2
39 8 16 7 23 -7 33 -9 7 -23 10 -31 7 -8 -3 -23 2 -34 12 -17 16 -19 15 -31
-7z m70 -23 c19 6 20 3 15 -24 -4 -19 -2 -37 6 -46 11 -13 9 -15 -13 -15 -13
0 -30 -7 -37 -15 -17 -21 -27 -19 -34 8 -3 13 -16 28 -28 34 l-22 10 27 18
c15 9 27 26 27 38 0 19 1 19 19 3 13 -11 27 -15 40 -11z"/>
<path d="M769 2435 c-19 -10 -50 -60 -108 -175 -45 -88 -86 -160 -90 -160 -4
0 -20 55 -35 122 -30 138 -49 168 -101 168 -45 0 -85 -42 -85 -87 0 -19 25
-138 55 -266 106 -449 113 -469 168 -482 36 -9 76 11 93 48 15 32 14 39 -20
171 -20 75 -36 144 -36 152 0 34 34 6 149 -122 68 -74 134 -140 148 -145 50
-19 113 24 113 78 0 42 -25 75 -157 205 l-129 127 80 133 c91 151 99 184 52
224 -31 27 -59 30 -97 9z m85 -31 c28 -27 18 -58 -68 -200 l-84 -139 143 -145
c78 -80 145 -153 148 -163 17 -47 -42 -93 -86 -67 -12 7 -78 75 -147 151 -69
76 -127 138 -130 138 -3 0 -16 -9 -29 -19 l-23 -20 36 -145 c20 -79 36 -152
36 -161 0 -51 -77 -73 -105 -30 -16 24 -46 141 -130 500 -37 159 -44 205 -36
223 14 30 55 47 81 33 21 -11 27 -31 60 -180 30 -132 25 -125 58 -102 18 13
54 72 101 164 41 79 81 151 89 161 19 21 65 22 86 1z"/>
<path d="M1008 2434 c-58 -31 -67 -113 -19 -166 24 -27 35 -32 70 -31 52 2 77
16 96 53 25 49 19 88 -19 126 -38 38 -81 44 -128 18z m115 -33 c48 -48 8 -141
-60 -141 -78 0 -109 85 -53 142 26 25 36 29 63 24 18 -4 40 -15 50 -25z"/>
<path d="M1882 2320 c-59 -31 -85 -71 -90 -139 -4 -76 24 -121 119 -186 87
-61 102 -80 75 -101 -26 -19 -43 -18 -61 4 -55 64 -65 72 -99 72 -25 0 -40 -7
-55 -26 -41 -52 -15 -120 67 -178 79 -56 215 -45 273 20 32 37 49 84 49 137 0
78 -37 131 -134 192 -42 26 -76 53 -76 61 0 22 57 18 70 -5 31 -59 94 -70 130
-24 82 105 -132 242 -268 173z m185 -31 c50 -24 76 -57 76 -96 0 -26 -25 -53
-50 -53 -7 0 -30 18 -52 40 -43 44 -67 49 -101 22 -33 -27 -20 -52 48 -92 123
-74 160 -130 147 -217 -17 -115 -153 -176 -264 -119 -35 19 -81 65 -92 94 -12
32 5 70 37 78 24 6 33 1 67 -39 30 -37 46 -47 69 -47 48 0 68 16 68 55 0 30
-6 39 -42 64 -115 80 -131 95 -150 138 -14 31 -18 56 -14 79 8 38 49 92 80
104 41 17 128 11 173 -11z"/>
<path d="M2324 2315 c-12 -8 -26 -27 -33 -42 -6 -16 -21 -33 -33 -38 -68 -31
-75 -120 -12 -157 19 -11 34 -26 34 -33 0 -22 51 -56 79 -54 14 2 43 -5 65
-15 50 -22 91 -8 114 41 9 18 21 33 27 33 6 0 21 10 33 23 26 27 29 84 7 113
-8 10 -15 31 -15 46 0 17 -11 36 -32 53 -27 23 -39 26 -73 22 -26 -4 -46 -1
-59 9 -25 18 -76 18 -102 -1z m99 -28 c20 -21 25 -22 47 -10 34 17 43 16 74
-8 20 -15 26 -29 24 -48 -2 -15 4 -33 15 -43 33 -34 11 -108 -33 -108 -11 0
-20 -10 -24 -24 -14 -55 -76 -75 -110 -37 -13 15 -26 18 -52 14 -40 -7 -64 9
-64 43 0 17 -6 24 -18 24 -20 0 -45 24 -54 50 -10 27 11 61 47 76 23 9 35 21
35 34 0 28 35 60 65 60 14 0 36 -10 48 -23z"/>
<path d="M1060 2217 c-30 -15 -52 -55 -46 -82 3 -11 10 -94 16 -185 14 -213
17 -228 45 -256 30 -29 64 -31 99 -3 30 23 33 60 17 209 -5 47 -13 130 -16
184 -6 85 -10 102 -31 123 -26 26 -47 29 -84 10z m80 -43 c6 -14 10 -46 10
-72 0 -26 7 -118 16 -205 15 -150 15 -159 -1 -178 -10 -10 -28 -19 -40 -19
-46 0 -53 22 -70 248 -18 240 -16 252 41 252 28 0 36 -5 44 -26z"/>
<path d="M2680 1965 c0 -8 5 -15 10 -15 6 0 10 7 10 15 0 8 -4 15 -10 15 -5 0
-10 -7 -10 -15z"/>
<path d="M2650 1930 c-13 -8 -12 -10 3 -10 9 0 17 5 17 10 0 12 -1 12 -20 0z"/>
<path d="M2705 1930 c3 -5 8 -10 11 -10 2 0 4 5 4 10 0 6 -5 10 -11 10 -5 0
-7 -4 -4 -10z"/>
<path d="M2690 1920 c-1 -3 -4 -16 -6 -30 -3 -18 -2 -22 7 -13 6 6 9 19 6 29
-3 11 -6 17 -7 14z"/>
<path d="M2352 1890 c-113 -23 -202 -130 -202 -244 0 -24 -5 -36 -14 -36 -8 0
-35 -19 -61 -42 -58 -54 -65 -97 -20 -136 27 -23 34 -24 119 -20 78 4 97 2
131 -15 56 -29 155 -28 212 1 55 29 108 82 124 125 8 22 27 43 57 62 71 45
101 115 69 159 -15 20 -90 39 -119 30 -15 -4 -28 4 -54 34 -58 68 -152 100
-242 82z m18 -35 c0 -27 53 -75 91 -81 28 -5 41 -1 64 19 l29 25 28 -36 c15
-19 28 -39 28 -43 0 -16 -55 -37 -113 -44 -32 -4 -72 -17 -89 -29 -38 -25 -56
-75 -40 -110 10 -22 8 -24 -41 -34 -128 -27 -115 -28 -137 20 -30 66 -27 77
18 71 31 -4 44 0 70 22 27 22 32 34 32 70 0 36 -5 47 -35 73 l-34 31 32 20
c33 20 75 39 90 40 4 1 7 -6 7 -14z m129 -5 c43 -20 43 -21 26 -40 -26 -29
-80 -26 -110 5 -14 13 -25 31 -25 40 0 22 55 19 109 -5z m-225 -91 c33 -39 35
-64 4 -55 -13 3 -40 6 -61 6 l-38 0 22 40 c13 22 28 40 35 40 7 0 24 -14 38
-31z m464 -25 c31 -22 27 -48 -15 -95 -110 -121 -577 -256 -658 -189 -28 23
-18 65 25 104 37 33 60 45 60 30 0 -4 -11 -17 -25 -30 -32 -30 -32 -61 0 -76
32 -14 148 2 274 38 148 43 312 134 311 173 -1 18 -21 34 -43 34 -14 0 -28 6
-31 13 -8 20 73 19 102 -2z m-109 -52 l9 -31 -64 -21 c-52 -18 -77 -20 -124
-15 -33 4 -60 11 -60 16 0 18 47 37 117 49 39 6 80 18 90 25 21 16 21 16 32
-23z m49 6 c-6 -18 -28 -21 -28 -4 0 9 7 16 16 16 9 0 14 -5 12 -12z m-388
-12 c0 -37 -103 -65 -116 -31 -13 33 4 45 61 45 41 0 55 -4 55 -14z m200 -79
c14 -1 39 3 55 6 17 4 -10 -9 -58 -28 -48 -20 -92 -33 -97 -30 -6 4 -10 20
-10 37 0 31 0 31 43 23 23 -5 53 -8 67 -8z m-316 -77 c16 -33 12 -35 -30 -20
-26 10 -26 11 -9 30 10 11 19 20 21 20 1 0 9 -13 18 -30z m419 -28 c-26 -32
-37 -38 -83 -42 -38 -4 -57 -12 -70 -28 -20 -25 -46 -27 -105 -11 l-40 11 85
25 c47 13 119 39 160 57 41 18 77 31 79 29 3 -2 -9 -20 -26 -41z m-69 -62
c-16 -16 -74 -30 -74 -19 0 11 37 27 65 28 13 1 16 -2 9 -9z"/>
<path d="M312 1810 c0 -14 2 -19 5 -12 2 6 2 18 0 25 -3 6 -5 1 -5 -13z"/>
<path d="M355 1770 c-3 -5 1 -10 10 -10 9 0 13 5 10 10 -3 6 -8 10 -10 10 -2
0 -7 -4 -10 -10z"/>
<path d="M250 1751 c0 -6 5 -13 12 -17 7 -5 8 -3 3 6 -6 10 -4 12 9 7 10 -4
15 -3 11 3 -8 13 -35 13 -35 1z"/>
<path d="M1659 1712 c-17 -16 -34 -42 -38 -62 -5 -26 -13 -36 -29 -38 -30 -5
-72 -58 -72 -92 0 -40 18 -75 45 -90 17 -9 24 -24 28 -57 9 -80 71 -120 132
-85 21 13 37 17 46 11 19 -12 76 -11 100 1 23 13 49 61 49 93 0 14 7 31 17 38
9 8 22 29 30 47 29 69 -29 162 -101 162 -28 0 -34 5 -45 35 -24 66 -108 86
-162 37z m129 -28 c12 -14 22 -33 22 -43 0 -14 10 -20 47 -24 61 -7 93 -41 93
-98 0 -38 -26 -79 -50 -79 -5 0 -10 -20 -10 -45 0 -48 -27 -85 -61 -85 -25 0
-69 21 -69 33 0 5 -11 -2 -25 -17 -29 -32 -74 -35 -100 -6 -14 15 -17 31 -13
70 5 44 3 50 -14 50 -27 0 -68 45 -68 75 0 35 42 75 78 75 26 0 28 3 24 30
-12 83 89 128 146 64z"/>
<path d="M286 1713 c-10 -25 -6 -39 5 -20 12 21 45 22 53 1 3 -8 10 -12 16 -9
15 9 -10 31 -42 37 -18 3 -29 0 -32 -9z"/>
<path d="M1239 1631 c-17 -13 -33 -17 -65 -13 -36 4 -46 0 -68 -22 -15 -14
-29 -39 -32 -56 -4 -16 -11 -30 -16 -30 -23 0 -58 -50 -58 -84 0 -43 41 -96
75 -96 15 0 26 -7 30 -20 17 -54 101 -77 146 -41 17 13 33 17 56 14 27 -5 38
0 68 30 19 19 35 43 35 53 1 11 15 28 33 39 45 29 61 66 47 110 -11 35 -51 65
-85 65 -8 0 -15 5 -15 10 0 6 -12 22 -26 35 -33 31 -91 34 -125 6z m115 -32
c14 -17 26 -35 26 -40 0 -5 12 -9 27 -9 36 0 63 -27 63 -63 0 -39 -26 -67 -62
-67 -24 0 -28 -3 -23 -22 12 -51 -45 -105 -92 -87 -18 7 -28 4 -43 -11 -45
-45 -115 -29 -126 29 -5 23 -10 27 -30 23 -13 -2 -31 2 -40 9 -46 38 -35 115
18 126 21 4 27 10 23 23 -16 49 52 104 100 82 21 -10 28 -8 49 13 36 35 77 33
110 -6z"/>
<path d="M817 1533 c-4 -3 -7 -14 -7 -24 0 -10 -11 -26 -25 -37 -30 -24 -31
-38 -5 -54 11 -7 20 -20 20 -28 0 -9 6 -25 14 -36 14 -19 15 -19 38 3 13 12
37 23 53 25 24 2 29 7 27 23 -2 11 -5 38 -5 60 -2 36 -5 40 -31 43 -16 2 -35
10 -43 18 -16 15 -26 18 -36 7z m76 -43 c25 0 26 -2 15 -25 -9 -19 -9 -28 0
-37 19 -19 14 -28 -17 -28 -16 0 -34 -7 -41 -15 -17 -21 -30 -19 -30 4 0 11
-10 27 -22 36 l-23 16 23 16 c12 8 22 23 22 33 0 26 12 32 30 15 9 -8 28 -15
43 -15z"/>
<path d="M326 1507 c-14 -15 -26 -33 -26 -42 0 -8 -6 -15 -14 -15 -24 0 -56
-34 -62 -67 -5 -26 -1 -37 27 -68 19 -20 46 -49 61 -66 28 -30 65 -38 86 -17
9 9 15 9 24 0 21 -21 77 -14 102 13 13 14 30 25 39 25 26 0 67 43 73 77 6 28
1 38 -29 68 -19 19 -38 46 -41 60 -9 37 -48 58 -93 51 -48 -8 -51 -8 -90 0
-26 5 -37 1 -57 -19z m82 -14 c16 -17 18 -17 35 0 23 23 62 22 87 -3 11 -11
20 -31 20 -45 0 -15 6 -25 14 -25 25 0 46 -30 46 -64 0 -40 -20 -59 -61 -59
-16 0 -29 -5 -29 -10 0 -37 -66 -61 -89 -33 -10 12 -16 12 -40 -2 -26 -15 -30
-15 -55 1 -16 11 -26 27 -26 41 0 17 -7 26 -25 30 -57 15 -53 91 6 103 22 4
29 11 29 29 0 23 33 54 57 54 7 0 21 -8 31 -17z"/>
<path d="M2085 1326 c-51 -19 -56 -25 -44 -47 7 -15 7 -24 -1 -35 -18 -21 -4
-46 23 -42 13 1 32 -5 41 -15 20 -20 36 -14 36 14 0 10 7 19 15 19 22 0 30 28
13 48 -8 9 -19 29 -26 45 -13 30 -13 30 -57 13z m45 -36 c0 -11 10 -25 22 -31
l23 -12 -23 -10 c-12 -6 -22 -16 -22 -24 0 -15 -16 -17 -25 -3 -3 6 -17 10
-31 10 -26 0 -29 7 -15 29 6 9 6 22 0 33 -8 15 -6 18 15 18 14 0 28 5 31 10 9
15 25 2 25 -20z"/>
<path d="M950 1250 c-24 -24 -24 -14 1 -179 51 -334 58 -373 69 -387 13 -15
57 -19 76 -6 32 21 33 47 4 202 -15 85 -34 200 -40 254 -9 71 -18 104 -31 117
-25 25 -54 24 -79 -1z m68 -17 c5 -10 15 -63 22 -118 6 -55 23 -156 36 -225
34 -179 32 -200 -22 -200 -22 0 -29 28 -63 265 -18 121 -34 230 -36 242 -9 41
45 71 63 36z"/>
<path d="M2236 1254 c-10 -10 -16 -33 -16 -65 0 -34 -4 -49 -13 -49 -7 0 -21
-6 -31 -13 -41 -30 -7 -114 41 -102 16 4 23 1 23 -9 0 -32 30 -285 36 -300 13
-34 85 -32 104 4 10 18 -6 193 -26 292 -5 23 -1 27 25 33 33 7 61 38 61 67 0
30 -38 61 -70 56 -26 -4 -28 -1 -33 34 -3 21 -11 45 -17 53 -16 20 -65 19 -84
-1z m74 -30 c6 -14 10 -39 10 -56 0 -29 1 -30 40 -23 36 6 41 4 51 -19 15 -33
0 -53 -47 -62 -40 -7 -39 5 -15 -179 10 -77 16 -145 14 -152 -8 -19 -44 -27
-59 -12 -8 9 -20 74 -30 171 l-17 157 -36 3 c-33 3 -36 6 -36 33 0 25 5 31 30
35 28 5 29 7 26 53 -1 27 3 54 9 63 19 22 49 17 60 -12z"/>
<path d="M2537 1242 c-10 -10 -17 -25 -17 -34 0 -8 -11 -20 -25 -26 -48 -22
-45 -106 5 -125 16 -6 33 -21 39 -34 13 -27 57 -40 83 -24 11 7 28 9 39 6 32
-11 55 3 88 55 33 51 35 76 6 100 -8 7 -15 20 -15 30 0 26 -35 52 -67 49 -15
-2 -38 2 -50 9 -31 17 -67 15 -86 -6z m83 -17 c8 -9 22 -12 41 -8 34 7 59 -10
59 -41 0 -12 9 -27 20 -34 11 -7 20 -17 20 -22 0 -6 -9 -18 -20 -27 -11 -10
-20 -26 -20 -35 0 -25 -44 -45 -63 -29 -11 9 -17 8 -27 -4 -25 -30 -80 -12
-80 25 0 9 -13 20 -32 25 -26 8 -34 16 -36 38 -4 33 13 57 39 57 13 0 19 7 19
23 0 13 5 28 12 35 16 16 53 15 68 -3z"/>
<path d="M627 1162 c-64 -19 -94 -40 -102 -74 -4 -14 23 -109 72 -253 69 -202
81 -232 106 -245 24 -13 30 -13 55 0 35 20 40 69 13 139 l-19 52 26 10 c94 34
162 117 162 199 0 34 -22 91 -47 121 -56 66 -150 84 -266 51z m175 -14 c91
-27 140 -146 96 -233 -21 -42 -73 -85 -120 -101 -26 -8 -48 -19 -48 -23 0 -4
9 -34 20 -66 11 -32 20 -69 20 -81 0 -29 -33 -49 -59 -35 -19 11 -36 55 -121
315 l-52 158 23 24 c25 25 111 52 168 53 18 1 51 -4 73 -11z"/>
<path d="M680 1066 c-19 -7 -35 -17 -35 -22 0 -5 11 -42 25 -81 26 -80 33 -84
97 -58 46 19 62 41 63 83 0 24 -8 42 -29 63 -32 32 -63 36 -121 15z m113 -34
c38 -34 6 -98 -59 -116 -18 -6 -24 1 -44 55 -23 64 -21 75 20 82 33 5 61 -2
83 -21z"/>
<path d="M1555 1115 c-25 -24 -25 -27 -25 -193 0 -163 1 -169 23 -190 27 -26
46 -28 73 -8 16 12 20 32 25 125 7 113 23 161 54 161 22 0 28 -43 22 -155 -6
-91 -5 -104 11 -119 26 -23 68 -20 86 6 13 18 16 51 16 158 0 157 -11 192 -72
225 -36 19 -40 19 -82 4 -36 -13 -46 -13 -62 -2 -26 19 -42 16 -69 -12z m75
-30 c0 -11 10 -8 38 11 27 19 45 24 66 20 70 -14 91 -67 89 -222 -1 -116 -11
-154 -41 -154 -35 0 -39 18 -34 139 4 111 3 120 -17 140 -17 17 -25 19 -41 11
-43 -23 -55 -58 -59 -172 -3 -96 -6 -110 -23 -119 -15 -8 -24 -7 -39 7 -17 15
-19 32 -19 176 0 145 2 160 20 178 16 16 25 18 40 10 11 -6 20 -17 20 -25z"/>
<path d="M1957 1109 c-22 -11 -51 -40 -68 -66 -25 -40 -29 -57 -29 -117 0
-127 63 -206 163 -206 78 0 127 35 127 93 0 25 -28 57 -50 57 -7 0 -27 -9 -44
-19 -27 -17 -36 -18 -56 -8 -40 20 -34 34 17 40 120 16 148 33 145 91 -5 126
-102 190 -205 135z m118 -11 c33 -15 65 -76 65 -123 0 -32 -4 -38 -36 -51 -19
-8 -64 -18 -100 -21 -37 -3 -64 -11 -64 -17 0 -21 29 -53 59 -66 27 -11 35 -9
66 10 29 18 38 20 50 10 8 -7 15 -20 15 -30 0 -62 -107 -92 -175 -50 -61 38
-96 132 -76 207 15 55 49 103 91 124 40 22 69 24 105 7z"/>
<path d="M1975 1015 c-36 -35 -33 -58 5 -51 17 3 44 9 60 12 35 7 41 37 11 54
-30 16 -50 12 -76 -15z m70 -5 c6 -9 -55 -31 -65 -23 -7 6 31 33 46 33 7 0 15
-4 19 -10z"/>
<path d="M1347 1100 c-16 -13 -28 -16 -32 -10 -8 14 -61 13 -88 -2 -46 -24
-61 -72 -32 -101 13 -13 13 -17 -1 -28 -42 -35 -57 -124 -30 -177 27 -51 62
-75 118 -79 36 -3 59 0 72 10 17 12 23 12 47 -2 34 -19 75 -4 85 33 3 14 -8
96 -25 183 -24 126 -35 162 -52 176 -27 22 -31 21 -62 -3z m68 -43 c14 -62 55
-289 55 -302 0 -9 -11 -21 -25 -27 -21 -9 -28 -8 -45 7 -20 18 -22 18 -49 2
-56 -33 -119 -16 -158 42 -52 77 -10 180 80 196 56 11 46 28 -12 20 -40 -5
-49 -4 -55 11 -10 27 2 51 35 65 38 15 79 3 95 -29 19 -37 27 -39 20 -3 -8 42
8 65 35 51 10 -6 21 -21 24 -33z"/>
<path d="M1265 895 c-14 -13 -25 -31 -25 -40 0 -20 44 -65 63 -65 24 0 67 40
67 64 0 33 -28 66 -56 66 -14 0 -36 -11 -49 -25z m77 -21 c11 -23 10 -29 -11
-45 -40 -32 -84 8 -55 50 21 29 52 27 66 -5z"/>
<path d="M284 1064 c3 -9 6 -18 6 -20 0 -3 4 -3 10 1 11 7 2 35 -12 35 -6 0
-7 -7 -4 -16z"/>
<path d="M260 1040 c-9 -6 -10 -10 -3 -10 6 0 15 5 18 10 8 12 4 12 -15 0z"/>
<path d="M317 1029 c7 -7 15 -10 18 -7 3 3 -2 9 -12 12 -14 6 -15 5 -6 -5z"/>
<path d="M260 1016 c0 -2 7 -7 16 -10 8 -3 12 -2 9 4 -6 10 -25 14 -25 6z"/>
<path d="M311 974 c0 -11 3 -14 6 -6 3 7 2 16 -1 19 -3 4 -6 -2 -5 -13z"/>
<path d="M427 903 c-4 -3 -7 -15 -7 -25 0 -10 -9 -23 -20 -30 -26 -17 -25 -30
5 -56 14 -12 25 -31 25 -41 0 -30 17 -34 40 -11 11 11 32 20 46 20 24 0 26 3
20 28 -4 15 -8 43 -9 62 -2 31 -5 35 -29 35 -16 1 -33 6 -40 13 -14 14 -22 15
-31 5z m61 -33 c20 0 23 -4 19 -21 -3 -12 1 -32 10 -45 15 -23 14 -24 -10 -24
-13 0 -30 -7 -37 -15 -17 -21 -30 -19 -30 4 0 11 -10 27 -22 36 -22 15 -22 17
-5 29 9 7 17 20 17 28 0 21 12 30 24 18 5 -5 21 -10 34 -10z"/>
<path d="M2637 835 c-4 -8 -2 -17 2 -20 5 -2 11 4 14 15 6 23 -8 27 -16 5z"/>
<path d="M2675 790 c3 -5 11 -10 16 -10 6 0 7 5 4 10 -3 6 -11 10 -16 10 -6 0
-7 -4 -4 -10z"/>
<path d="M2588 783 c7 -3 16 -2 19 1 4 3 -2 6 -13 5 -11 0 -14 -3 -6 -6z"/>
<path d="M2656 742 c-2 -4 7 -15 20 -25 13 -10 24 -14 24 -10 0 13 -39 43 -44
35z"/>
<path d="M2416 732 c7 -4 14 -16 17 -27 4 -18 5 -18 6 3 0 12 6 22 11 22 6 0
10 -10 10 -22 1 -22 1 -22 11 -4 13 22 -2 36 -41 36 -14 0 -20 -3 -14 -8z"/>
<path d="M2492 720 c-15 -25 -15 -27 3 -27 9 0 15 10 15 24 0 28 -2 28 -18 3z"/>
<path d="M2617 733 c-4 -3 -7 -11 -7 -17 0 -6 5 -5 12 2 6 6 9 14 7 17 -3 3
-9 2 -12 -2z"/>
<path d="M875 560 c-16 -49 -16 -96 1 -55 14 37 39 45 49 15 3 -11 10 -20 15
-20 12 0 -24 103 -37 107 -6 2 -19 -19 -28 -47z m31 -7 c-10 -10 -19 5 -10 18
6 11 8 11 12 0 2 -7 1 -15 -2 -18z"/>
<path d="M1011 548 c1 -45 3 -54 8 -33 l6 29 21 -26 c28 -36 39 -24 12 13
l-21 28 24 20 c13 10 21 23 16 27 -4 4 -19 -3 -34 -17 l-26 -24 6 23 c3 12 1
22 -4 22 -5 0 -8 -28 -8 -62z"/>
<path d="M1097 602 c-11 -16 2 -117 13 -105 4 4 4 33 1 63 -4 35 -9 50 -14 42z"/>
<path d="M1142 553 c3 -52 5 -58 23 -55 20 3 55 37 55 54 0 15 -48 58 -65 58
-13 0 -15 -10 -13 -57z m52 15 c8 -14 6 -22 -10 -39 l-22 -21 -4 41 c-3 32 0
41 11 39 7 -2 19 -11 25 -20z"/>
<path d="M1230 590 c0 -19 3 -21 12 -12 9 9 9 15 0 24 -9 9 -12 7 -12 -12z"/>
<path d="M1282 598 c-19 -19 -14 -37 13 -50 26 -12 34 -38 12 -38 -7 0 -18 5
-25 12 -8 8 -12 8 -12 1 0 -17 28 -36 45 -29 29 11 30 38 2 60 -32 26 -35 40
-6 33 13 -3 19 -1 16 6 -5 17 -30 20 -45 5z"/>
<path d="M1416 588 c-24 -33 -20 -65 10 -84 24 -16 26 -16 42 1 16 17 16 17 0
12 -27 -10 -48 3 -48 28 0 28 22 47 44 39 9 -3 16 -2 16 4 0 10 -23 22 -40 22
-5 0 -16 -10 -24 -22z"/>
<path d="M1498 604 c-9 -9 -10 -50 -2 -81 5 -17 14 -23 35 -23 16 0 29 5 29
11 0 7 -10 9 -24 5 -24 -6 -25 -4 -28 45 -2 28 -6 47 -10 43z"/>
<path d="M1590 590 c-36 -36 -21 -90 25 -90 29 0 45 19 45 51 0 27 -22 59 -41
59 -5 0 -18 -9 -29 -20z m45 -36 c0 -22 -5 -30 -22 -32 -18 -3 -23 1 -23 20 0
26 18 50 35 45 5 -2 10 -17 10 -33z"/>
<path d="M1670 600 c0 -5 7 -10 15 -10 11 0 15 -12 15 -44 0 -25 5 -48 10 -51
6 -4 10 13 10 44 0 39 4 51 15 51 8 0 15 5 15 10 0 6 -18 10 -40 10 -22 0 -40
-4 -40 -10z"/>
<path d="M1770 607 c-9 -9 2 -117 11 -111 5 3 9 14 9 25 0 12 7 19 20 19 13 0
20 -7 20 -20 0 -11 4 -20 9 -20 5 0 10 25 10 55 0 30 -5 55 -10 55 -5 0 -9
-11 -9 -25 0 -20 -5 -25 -24 -25 -19 0 -25 6 -28 26 -2 14 -5 24 -8 21z"/>
<path d="M1910 558 c0 -32 4 -58 10 -58 6 0 10 15 10 33 l0 32 21 -32 c28 -45
39 -41 39 12 0 25 0 47 0 50 0 3 -3 4 -7 3 -5 -2 -7 -19 -6 -38 l2 -35 -17 24
c-9 14 -25 34 -34 45 -17 20 -17 19 -18 -36z"/>
<path d="M2024 584 c-25 -38 -9 -79 31 -79 25 0 31 4 33 28 3 22 -1 27 -17 27
-12 0 -21 -4 -21 -10 0 -5 7 -10 16 -10 14 0 14 -3 4 -15 -10 -12 -16 -13 -26
-4 -28 23 -9 69 29 69 10 0 15 5 12 10 -11 19 -44 10 -61 -16z"/>
<path d="M2159 594 c-12 -14 -10 -19 14 -40 27 -23 35 -44 18 -44 -6 0 -13 5
-16 10 -8 13 -25 13 -25 0 0 -14 37 -31 54 -24 26 10 19 49 -10 62 -29 14 -23
36 8 26 15 -4 19 -2 16 7 -7 21 -43 22 -59 3z"/>
<path d="M2240 550 c0 -33 4 -60 10 -60 6 0 10 11 10 25 0 18 5 25 20 25 13 0
20 -7 20 -19 0 -11 5 -23 10 -26 6 -4 10 17 10 54 0 34 -4 61 -10 61 -5 0 -10
-11 -10 -25 0 -18 -5 -25 -20 -25 -15 0 -20 7 -20 25 0 14 -4 25 -10 25 -6 0
-10 -27 -10 -60z"/>
<path d="M2357 592 c-31 -34 -16 -92 23 -92 42 0 65 64 34 94 -20 21 -37 20
-57 -2z m48 -38 c0 -32 -31 -47 -46 -22 -12 18 -11 24 7 43 23 22 39 14 39
-21z"/>
<path d="M2457 603 c-11 -11 -8 -115 3 -108 6 3 10 15 10 25 0 12 8 20 22 22
26 3 35 32 18 53 -13 16 -42 20 -53 8z m43 -27 c0 -17 -27 -29 -35 -16 -4 6
-3 15 0 20 9 15 35 12 35 -4z"/>
<path d="M1870 550 c0 -27 5 -50 10 -50 6 0 10 23 10 50 0 28 -4 50 -10 50 -5
0 -10 -22 -10 -50z"/>
</g>
</svg>
